<?xml version="1.0" encoding="utf-8"?>
<!-- Generator: Adobe Illustrator 27.0.0, SVG Export Plug-In . SVG Version: 6.00 Build 0)  -->
<svg version="1.1" id="Layer_1" xmlns="http://www.w3.org/2000/svg" xmlns:xlink="http://www.w3.org/1999/xlink" x="0px" y="0px"
	 viewBox="0 0 512 457.1" style="enable-background:new 0 0 512 457.1;" xml:space="preserve">
<style type="text/css">
	.st0{fill:#00A88F;}
</style>
<g>
	<g>
		<path class="st0" d="M271.5,52.6c-0.1-0.1-0.1-0.2-0.2-0.2c0.5,0.6,0.9,1.2,1.4,1.8C272.3,53.6,271.9,53.1,271.5,52.6z
			 M271.2,52.2C271.2,52.3,271.3,52.3,271.2,52.2c-0.1-0.2-0.4-0.5-0.6-0.8C270.8,51.7,271,52,271.2,52.2z M485.3,188.4
			c-10.7-13.1-23.2-24.6-37.2-34.1c1.9-7.2,4-14.5,5.2-21.9c1-5.9,0.5-12,0.8-18c-3.5-2.2-7.1-4.2-10.7-6.1
			c-8.5-4.4-17.9-6.4-27-8.9c0.2-10.5-2.4-20.8-5.3-30.8c-4.7-15.5-10.7-30.7-17.8-45.3c-2.8-5.6-5.7-11.3-9.4-16.4
			c-26.1,0.2-52.7,1.4-77.5,10.4c-6.4,2.2-12.5,5-18.4,8.1c-9.3-10-20-18.8-32-25.3c-12,6.5-22.7,15.3-32,25.3
			c-16-8.6-33.7-13.5-51.6-16c-14.7-2.1-29.5-2.2-44.3-2.5c-3.5,4.7-6.1,9.9-8.8,15.1c-7.4,15-13.6,30.6-18.4,46.6
			c-2.9,10-5.5,20.3-5.3,30.9c-7.2,1.9-14.4,3.7-21.4,6.3c-5.7,2.2-10.9,5.5-16.2,8.6c0.1,6.3-0.3,12.6,0.8,18.8
			c1.2,7.2,3.2,14.2,5.1,21.2c-20.9,14.1-38.4,33-51.8,54.2c-4.2,6.5-8.1,13.3-12.2,20v0.1c8.2,16,19.4,30.3,30.8,44
			c9.8,11.2,20,22.7,33.1,30.1c-2,7.3-4.1,14.5-5.2,22c-0.9,6-0.6,12-0.7,18c5.3,3,10.5,6.4,16.3,8.6c7,2.7,14.2,4.5,21.4,6.4
			c1.3,18.9,5.9,37.5,13.1,55c5.3,13,12.3,25.3,19.2,37.6c17.4,0.7,34.8-1,51.8-4.2c15.2-3,30.4-7,44.3-13.8
			c9.2,9.9,19.9,18.4,31.8,24.9c11.8-6.6,22.6-15,31.8-24.9c12.1,6,25.1,9.8,38.2,12.6c19,4,38.5,6.2,57.9,5.5
			c7.3-12.9,14.6-25.9,20.1-39.7c6.7-16.8,11-34.7,12.3-52.8c8-2.2,16-4.1,23.6-7.3c4.9-2.2,9.5-5,14.1-7.8
			c-0.2-5.7,0.2-11.5-0.6-17.2c-1.1-7.7-3.3-15.2-5.3-22.7c13.1-7.4,23.2-18.9,33.1-30.1c11.5-13.8,22.7-28.1,30.9-44.2v-0.1
			C503.8,214.7,495.6,200.8,485.3,188.4z M422.9,132.2c-6,30.7-25.2,57.2-48.4,77.4c-8.9-5.8-17.7-12.1-27.6-16.1
			c11.2-6.8,22.6-13.1,33.9-19.7c-5.1-8.7-9.9-17.4-15.1-26c-11.3,6.7-22.7,13.1-34,19.7c1.7-10.6,0.5-21.4-0.2-32
			C360.6,125.4,393.3,122,422.9,132.2z M366.4,37c9.4,18.5,17.4,38.3,19.6,59.1c-20-0.2-40,3.2-59,9.3c-4.2-19.5-11-38.6-21.1-55.8
			C324.9,41.2,345.8,38.4,366.4,37z M233,63.5c6.2-10.3,13.9-19.8,23-27.6c0.7,0.6,1.4,1.2,2.1,1.9c2.6,2.4,5,4.9,7.3,7.5
			c0.2,0.2,0.3,0.4,0.5,0.5c0.3,0.4,0.7,0.8,1,1.1c0.1,0.1,0.3,0.3,0.4,0.5c0.1,0.1,0.2,0.2,0.2,0.3c0,0,0,0,0,0
			c0.3,0.3,0.5,0.6,0.8,0.9c0.1,0.1,0.2,0.3,0.4,0.4c0.3,0.4,0.7,0.8,1,1.3c0.1,0.1,0.2,0.3,0.3,0.4c0.2,0.2,0.4,0.5,0.6,0.7
			c0,0,0,0,0,0c0.2,0.2,0.4,0.5,0.6,0.8c0,0,0,0.1,0.1,0.1c0.4,0.6,0.9,1.1,1.3,1.7c0,0,0.1,0.1,0.1,0.1c0.7,0.9,1.3,1.8,1.9,2.7
			c0.3,0.4,0.5,0.8,0.8,1.2c0.6,0.9,1.2,1.8,1.8,2.7c0.3,0.4,0.6,0.9,0.9,1.3c0.4,0.6,0.8,1.3,1.2,1.9c0.5,0.7,0.9,1.5,1.3,2.2
			c0.4,0.6,0.7,1.2,1.1,1.9c0.3,0.5,0.6,1.1,0.9,1.6c0.1,0.1,0.1,0.2,0.2,0.4c0.3,0.5,0.5,1,0.8,1.5c0.4,0.8,0.8,1.5,1.2,2.3
			c0.3,0.6,0.6,1.2,0.9,1.9c0.6,1.3,1.2,2.6,1.8,3.9c0.3,0.7,0.6,1.4,0.9,2.1c0.3,0.8,0.7,1.6,1,2.4c0.2,0.5,0.4,1,0.6,1.5
			c0.4,1.1,0.8,2.1,1.2,3.2c0.2,0.5,0.4,1,0.5,1.5s0.4,1,0.5,1.5c0.4,1,0.7,2.1,1.1,3.1c0.3,1,0.7,2.1,1,3.2
			c0.2,0.7,0.4,1.4,0.6,2.1c0.2,0.7,0.4,1.4,0.6,2.1c0.2,0.7,0.4,1.4,0.5,2.1c0.4,1.4,0.7,2.8,1,4.1c0.8,3.3,1.5,6.6,2,9.9
			c2.5,13.5,3.5,27.3,3.3,41c-1.3,9.2-7,16.8-13.1,23.7c-1.4,1.5-2.8,3-4.2,4.5c-4.3-3-9.1-5.4-14.1-7V93.1h-30v87.5
			c0,0-0.1,0-0.1,0c-5,1.7-9.7,4.1-14,7c-5-5.1-9.8-10.5-13.3-16.7c-2.3-4.1-4.2-8.7-4.1-13.4c0-4.3,0-8.6,0.2-12.9
			C211.3,116.3,218.2,87.9,233,63.5z M236.1,225.5c1.1-7.7,7-14.3,14.4-16.4c6.7-2,14.3-0.1,19.3,4.7c5.1,4.7,7.5,12.1,6,18.9
			c-1.4,6.7-6.4,12.5-12.8,14.8c-6.7,2.6-14.8,1.1-20.2-3.7C237.6,239.4,235,232.2,236.1,225.5z M145.3,37.1
			c20.7,1.1,41.7,4.1,60.8,12.4c-10.1,17.2-17,36.2-21.1,55.7c-19.1-5.7-39-9.5-59-9.1C128,75.3,136.3,55.8,145.3,37.1z
			 M180.5,135.5c0,0.8-0.1,1.6-0.2,2.4c-0.1,0.8-0.1,1.6-0.2,2.5c-0.1,1.2-0.2,2.5-0.3,3.7c0,0.5-0.1,1-0.1,1.5
			c0,0.7-0.1,1.5-0.1,2.2c0,0.6-0.1,1.3-0.1,1.9c-0.1,2.4-0.2,4.8-0.1,7.2c0,0.5,0,0.9,0,1.3c0,0.5,0,0.9,0,1.4
			c0.1,1.1,0.1,2.3,0.2,3.4c0.1,1.5,0.3,3,0.6,4.5c0,0,0,0.1,0,0.1c-11.3-6.6-22.7-13-34-19.7c-5.2,8.5-10.1,17.3-15.1,26
			c0,0,0,0,0,0c11.4,6.6,22.7,13,34,19.6c0,0,0.1,0,0.1,0.1c-10.1,3.8-18.8,10.2-27.8,16c-0.8-0.7-1.5-1.3-2.3-2
			c-2-1.8-3.9-3.6-5.8-5.4c-0.5-0.5-0.9-0.9-1.4-1.4c-1-1-1.9-2-2.9-2.9c-0.6-0.6-1.1-1.1-1.6-1.7c-0.9-0.9-1.7-1.9-2.6-2.8
			c-0.5-0.5-1-1.1-1.4-1.6c-0.5-0.5-1-1.1-1.4-1.7c-0.5-0.6-0.9-1.1-1.4-1.7c-0.4-0.5-0.9-1-1.2-1.5c-12.8-16-22.5-34.4-26.3-54.6
			C118.7,122.1,151.3,125.4,180.5,135.5L180.5,135.5z M34.9,228.5c11.5-17.3,24.5-34.1,41.3-46.4c9.8,17.4,22.7,33,37.4,46.4
			C98.9,242,86,257.6,76.2,275C59.4,262.6,46.4,245.8,34.9,228.5z M122.4,330.8c0,0-0.1,0-0.2,0c-0.8,0-1.5-0.1-2.2-0.1
			c0,0-0.1,0-0.1,0c-0.5,0-1.1-0.1-1.6-0.1c-0.6,0-1.1-0.1-1.6-0.1c-0.1,0-0.2,0-0.3,0c-0.3,0-0.6-0.1-0.9-0.1c0,0-0.1,0-0.1,0
			c-0.7-0.1-1.3-0.1-2-0.2c-0.8-0.1-1.6-0.2-2.4-0.3c-0.8-0.1-1.6-0.2-2.5-0.4c-2.4-0.4-4.7-0.8-7.1-1.3c-0.2,0-0.5-0.1-0.7-0.2
			c-0.7-0.1-1.3-0.3-2-0.5c-0.8-0.2-1.6-0.4-2.4-0.6c-0.5-0.1-1-0.3-1.6-0.4c-0.1,0-0.2,0-0.2-0.1c-0.3-0.1-0.6-0.2-0.9-0.3
			c-0.7-0.2-1.4-0.4-2.1-0.6c-0.8-0.2-1.5-0.5-2.3-0.7c5.1-25.7,19.4-49,37.7-67.5c13.6-13.7,29.3-25.3,46.2-34.6
			c10.6-4.2,22.3-1.5,32.9,1c-0.5,5.3-0.1,10.6,1,15.8c-25.2,14.6-50.5,29.2-75.8,43.8c5.1,8.6,9.9,17.4,15.1,26
			c25.2-14.6,50.5-29.2,75.7-43.8c3.8,3.7,8.7,6.1,13,9c-1.4,5.8-3.5,11.4-6.2,16.8c-2.6,5.1-5.9,10.1-11,13.1
			c-24.7,14.2-52.2,24.5-80.9,26.3c-3.6,0.2-7.2,0.3-10.9,0.2c-0.4,0-0.8,0-1.3,0C124,330.9,123.2,330.9,122.4,330.8z M145.4,420
			c-9.1-18.6-17.3-38.2-19.5-59c20,0.2,40-3.1,59-9.3c4.7,19.4,11.2,38.5,21.3,55.8C187,415.8,166,418.8,145.4,420z M256,421.2
			c-22.3-19.4-35.6-47.3-41.8-75.8c-0.1-1.6-1.3-3.4-0.7-4.9c9.4-4.9,19.2-9.1,27.5-16V364h30v-39.5c8.3,7,18.5,11,27.9,16.3
			C292.8,370.9,279.6,400.8,256,421.2z M366.7,420c-20.7-1.2-41.7-4.1-60.8-12.5c10-17.3,16.6-36.3,21.1-55.8
			c19.1,6.1,39.1,9.5,59.2,9.3C383.9,381.8,375.7,401.3,366.7,420z M359.2,328.9c-23.4-4-45.8-13.2-66.2-25.2
			c-8.5-6.2-12.1-16.6-15.2-26.2c-0.1-0.8-0.7-1.9-0.7-2.7c0,0,0-0.1,0-0.1c0.1-0.4,0.3-0.8,1-0.9c4.3-2.1,8.3-4.9,11.9-8.1
			c25.2,14.6,50.5,29.1,75.7,43.8c5.2-8.6,10-17.3,15.1-26c0,0,0,0,0,0c-25.3-14.6-50.5-29.2-75.8-43.8c0,0,0-0.1,0-0.1
			c0.3-1.4,0.5-2.8,0.7-4.2c0.1-0.5,0.1-0.9,0.2-1.4c0.2-1.9,0.3-3.8,0.3-5.7c0-0.6,0-1.2,0-1.8c0-0.5,0-1-0.1-1.5
			c0-0.1,0-0.2,0-0.3c0-0.2,0-0.5,0-0.7h0c10.9-2.6,22.9-5.4,33.6-0.7c23.5,13.3,45.2,30.7,61.2,52.8c10.6,14.6,18.4,31.2,22,48.8
			c0,0.1,0,0.1,0,0.2C402.4,331.7,380.3,332.5,359.2,328.9z M435.8,275c-9.8-17.4-22.7-32.9-37.4-46.4c14.7-13.5,27.6-29,37.4-46.5
			c16.9,12.4,29.8,29.2,41.3,46.4C465.6,245.8,452.6,262.6,435.8,275z"/>
		<path class="st0" d="M305,239.5C305,239.5,305,239.5,305,239.5c0.3-1.4,0.5-2.8,0.7-4.2C305.5,236.7,305.3,238.1,305,239.5z"/>
		<path class="st0" d="M380.8,283.4C380.8,283.4,380.8,283.4,380.8,283.4c-5.1,8.7-9.9,17.4-15.1,26c-25.2-14.7-50.5-29.2-75.7-43.8
			c-3.6,3.2-7.6,6-11.9,8.1c-0.7,0.2-0.9,0.5-1,0.9c0-0.5,0.3-0.9,1-1c4.3-2.1,8.3-4.9,11.9-8.1c25.2,14.6,50.5,29.1,75.7,43.8
			C370.9,300.7,375.7,292.1,380.8,283.4z"/>
		<path class="st0" d="M422.8,324.8C422.8,324.8,422.8,324.8,422.8,324.8c-3.6-17.6-11.4-34.2-22-48.8c-16-22.1-37.7-39.5-61.2-52.8
			c-10.7-4.7-22.7-1.9-33.6,0.7c0,0,0-0.1,0-0.1c10.9-2.6,22.9-5.4,33.6-0.7c23.5,13.3,45.2,30.7,61.2,52.8
			C411.3,290.5,419.3,307.1,422.8,324.8z"/>
		<path class="st0" d="M227.1,187.6c4.3-2.9,9-5.3,14-7v0.1C236.1,182.4,231.3,184.8,227.1,187.6c-5.1-5-9.9-10.4-13.4-16.6
			c-2.3-4.1-4.2-8.7-4.1-13.4c0-4.3,0.1-8.7,0.4-13c-0.2,4.3-0.3,8.6-0.2,12.9c-0.1,4.7,1.8,9.3,4.1,13.4
			C217.3,177.1,222.1,182.5,227.1,187.6z"/>
		<path class="st0" d="M271.2,180.6c5,1.6,9.8,4,14.1,7c0,0-0.1,0.1-0.1,0.1c-4.3-3-9.1-5.4-14.1-7V93.2h-29.9v-0.1h30V180.6z"/>
		<path class="st0" d="M299.2,118.4c-0.6-3.3-1.3-6.6-2-9.9c-5.4-23.1-15.9-45.5-31.8-63.3c16,17.8,26.5,40.2,31.9,63.4
			C298,111.9,298.7,115.1,299.2,118.4z"/>
		<path class="st0" d="M131.3,173.9c11.4,6.6,22.7,13,34,19.6c0,0,0,0,0,0C154,186.9,142.7,180.5,131.3,173.9
			C131.3,173.9,131.3,173.9,131.3,173.9z"/>
		<path class="st0" d="M179.8,162.9c0.2,1.5,0.3,3,0.6,4.5c0,0,0,0,0,0C180.1,166,179.9,164.5,179.8,162.9z"/>
		<path class="st0" d="M180.5,135.4C180.5,135.4,180.5,135.5,180.5,135.4c-29.2-10-61.8-13.3-91.2-3.2c3.8,20.2,13.5,38.6,26.3,54.6
			c-12.8-16-22.5-34.4-26.4-54.7C118.8,122,151.4,125.3,180.5,135.4z"/>
	</g>
</g>
</svg>
