<?xml version="1.0" encoding="utf-8"?>
<!-- Generator: Adobe Illustrator 27.0.0, SVG Export Plug-In . SVG Version: 6.00 Build 0)  -->
<svg version="1.1" id="Layer_1" xmlns="http://www.w3.org/2000/svg" xmlns:xlink="http://www.w3.org/1999/xlink" x="0px" y="0px"
	 viewBox="0 0 1295.6 283.9" style="enable-background:new 0 0 1295.6 283.9;" xml:space="preserve">
<style type="text/css">
	.st0{fill:#006555;}
</style>
<g>
	<path class="st0" d="M17.9,216.8v-1.3c5.9-7.9,8.9-19.1,8.9-32.1V71.7c0-13-3.1-24.2-8.9-32.1v-1.3h125.2l6.4,48.7h-2.6
		c-11-25.2-25.2-42.3-60.7-42.3H63.8v79.1h22.7c20.1,0,30.1-10.5,34.7-26.8h2.6v59.9h-2.6c-4.6-16.3-14.5-26.8-34.7-26.8H63.8v80.3
		h28.1c35.4,0,49.7-17.1,60.7-42.3h2.6l-6.4,48.7L17.9,216.8L17.9,216.8z"/>
	<path class="st0" d="M185.9,159.9V71.7c0-13-3.1-24.2-8.9-32.1v-1.3h54.8v1.3c-5.9,7.9-8.9,19.1-8.9,32.1v88.2
		c0,31.9,18.1,48.7,46.2,48.7s46.2-17.1,46.2-48.7V71.7c0-13-6.1-23-13.8-31.9v-1.5h35.2v1.5c-7.7,8.9-13.8,18.9-13.8,31.9v88.2
		c0,38.3-23,60.2-65.8,60.2C213,220.1,185.9,198.2,185.9,159.9z"/>
	<path class="st0" d="M362.7,216.8v-1.3c5.9-7.9,8.9-19.1,8.9-32.1V71.7c0-13-3.1-24.2-8.9-32.1v-1.3h126.2l6.4,48.7h-2.5
		c-11-25.2-25.2-42.3-60.7-42.3h-23.5v79.1h23.7c20.4,0,30.1-10.5,34.9-26.8h2.6v59.9h-2.6c-4.8-16.3-14.5-26.8-34.9-26.8h-23.7
		v53.3c0,13,3.1,24.2,8.9,32.1v1.3H362.7z"/>
	<path class="st0" d="M516.7,216.8v-1.3c5.9-7.9,8.9-19.1,8.9-32.1V71.7c0-13-3.1-24.2-8.9-32.1v-1.3h54.8v1.3
		c-5.9,7.9-8.9,19.1-8.9,32.1v138.7h25.5c35.4,0,49-17.1,60.7-43.9h2.5l-6.4,50.2H516.7V216.8z"/>
	<path class="st0" d="M949.8,167.1c-5.9-18.1-11.2-33.9-26.8-33.9h-15.3v50.2c0,13,3.1,24.2,8.9,32.1v1.3h-54.8v-1.3
		c5.9-7.9,8.9-19.1,8.9-32.1V71.7c0-13-3.1-24.2-8.9-32.1v-1.3h72.9c34.2,0,68.3,11.7,68.3,47.2c0,29.6-26.8,43.9-51,45.1v1
		c27.5,1,38,25,45.7,45.9c5.9,16.3,11.7,31.4,21.9,31.4c3.8,0,6.4-1.8,7.7-3.1l2,1.8c-4.6,7.1-16.1,11.2-28.1,11.2
		C966.8,218.8,957.4,190.5,949.8,167.1z M907.7,126.8h22.2c22.2,0,34.9-16.1,34.9-41.3c0-25-12.8-41.1-36-41.1
		c-6.9,0-14.8,1.3-21.2,3.8L907.7,126.8L907.7,126.8z"/>
	<path class="st0" d="M1046.4,216.8v-1.3c5.9-7.9,8.9-19.1,8.9-32.1V71.7c0-13-3.1-24.2-8.9-32.1v-1.3h54.8v1.3
		c-5.9,7.9-8.9,19.1-8.9,32.1v111.7c0,13,3.1,24.2,8.9,32.1v1.3H1046.4z"/>
	<path class="st0" d="M1118.3,216.8v-1.3c9.9-8.4,17.1-18.6,22.4-31.9l57.4-145.4h20.9l56.9,144.6c5.6,14,10.5,22.7,19.6,32.6v1.3
		h-63.2v-1.3c6.1-7.4,9.4-19.1,3.8-32.9l-10.2-25.5h-66.8l-9.4,23.7c-5.9,14.8-1.8,26.8,6.4,34.7v1.3L1118.3,216.8L1118.3,216.8z
		 M1161.4,150.7h62.2l-31.1-79.8L1161.4,150.7z"/>
</g>
<g>
	<g>
		<path class="st0" d="M737.3,45.2c3.8-4,8.1-7.6,13-10.2c4.9,2.6,9.2,6.2,13,10.2c2.4-1.3,4.9-2.4,7.5-3.3
			c10-3.6,20.8-4.1,31.4-4.2c1.5,2.1,2.7,4.4,3.8,6.6c2.9,5.9,5.3,12.1,7.2,18.3c1.2,4,2.2,8.2,2.1,12.5c3.7,1,7.5,1.8,10.9,3.6
			c1.5,0.8,2.9,1.6,4.3,2.5c-0.1,2.4,0.1,4.9-0.3,7.3c-0.5,3-1.3,6-2.1,8.9c5.7,3.8,10.7,8.5,15.1,13.8c4.2,5,7.5,10.7,10.8,16.2
			l0,0c-3.3,6.5-7.9,12.3-12.5,17.9c-4,4.5-8.1,9.2-13.4,12.2c0.9,3,1.7,6.1,2.1,9.2c0.3,2.3,0.2,4.7,0.2,7
			c-1.9,1.1-3.7,2.2-5.7,3.2c-3.1,1.3-6.4,2.1-9.6,3c-0.5,7.3-2.2,14.6-5,21.4c-2.2,5.6-5.2,10.9-8.1,16.1
			c-7.9,0.3-15.8-0.6-23.4-2.2c-5.3-1.2-10.6-2.7-15.5-5.1c-3.7,4-8.1,7.4-12.9,10.1c-4.8-2.6-9.2-6.1-12.9-10.1
			c-5.6,2.8-11.8,4.4-17.9,5.6c-6.9,1.3-14,2-21,1.7c-2.8-4.9-5.6-9.9-7.8-15.2c-2.9-7.1-4.8-14.6-5.3-22.3
			c-2.9-0.8-5.8-1.5-8.7-2.6c-2.3-0.9-4.4-2.3-6.6-3.5c0-2.4-0.1-4.9,0.3-7.3c0.4-3,1.3-6,2.1-8.9c-5.3-3-9.4-7.7-13.4-12.2
			c-4.6-5.6-9.2-11.4-12.5-17.8l0,0c1.6-2.7,3.2-5.4,4.9-8.1c5.5-8.6,12.5-16.3,21-22c-0.8-2.8-1.6-5.7-2.1-8.6
			c-0.4-2.5-0.3-5.1-0.3-7.6c2.1-1.2,4.3-2.6,6.6-3.5c2.8-1.1,5.8-1.8,8.7-2.6c-0.1-4.3,1-8.4,2.1-12.5c1.9-6.5,4.5-12.8,7.5-18.9
			c1.1-2.1,2.1-4.2,3.6-6.1c6,0.2,12,0.2,17.9,1C723.7,39.7,730.9,41.7,737.3,45.2z M741,60.7c-6.9,11.4-9.6,24.9-9.5,38.1
			c0,1.9,0.7,3.8,1.7,5.4c1.5,2.5,3.4,4.7,5.4,6.8c1.8-1.2,3.7-2.2,5.7-2.9c0-11.8,0-23.6,0-35.4c4,0,8.1,0,12.1,0
			c0,11.8,0,23.7,0,35.4c2,0.6,4,1.6,5.7,2.9c3.1-3.2,6.4-6.8,7-11.4c0.1-6.9-0.6-13.9-2.2-20.6c-2.6-11.1-8-21.8-16.7-29.4
			C746.6,52.7,743.5,56.5,741,60.7z M705.5,50c-3.6,7.5-7,15.5-7.8,23.9c8.1-0.1,16.2,1.4,23.9,3.7c1.7-7.9,4.5-15.6,8.5-22.6
			C722.4,51.6,713.9,50.4,705.5,50z M770.5,55c4.1,7,6.8,14.7,8.5,22.6c7.7-2.4,15.8-3.8,23.9-3.8c-0.9-8.4-4.1-16.4-7.9-23.9
			C786.7,50.5,778.2,51.6,770.5,55z M682.7,88.5c2.4,12.4,10.2,23.2,19.6,31.3c3.6-2.3,7.2-4.9,11.3-6.5c-4.6-2.7-9.2-5.3-13.8-8
			c2.1-3.5,4-7,6.1-10.5c4.6,2.7,9.2,5.3,13.8,8c-0.7-4.3-0.2-8.7,0-13C707.9,85.7,694.7,84.4,682.7,88.5z M780.9,89.8
			c0.2,4.3,0.8,8.7,0.1,13c4.6-2.7,9.2-5.3,13.8-8c2.1,3.4,4.1,7,6.1,10.5c-4.5,2.7-9.2,5.2-13.7,8c4,1.6,7.6,4.1,11.2,6.5
			c9.4-8.2,17.2-18.9,19.6-31.3C805.9,84.3,792.7,85.7,780.9,89.8z M660.8,127.5c4.7,7,9.9,13.8,16.7,18.8c4-7,9.2-13.4,15.2-18.8
			c-6-5.5-11.2-11.7-15.1-18.8C670.7,113.7,665.4,120.5,660.8,127.5z M808,127.5c6,5.5,11.2,11.7,15.1,18.8
			c6.8-5,12.1-11.8,16.7-18.8c-4.7-7-9.9-13.8-16.7-18.8C819.2,115.7,813.9,122,808,127.5z M748,119.6c-3,0.9-5.4,3.5-5.8,6.6
			c-0.4,2.7,0.6,5.6,2.7,7.4c2.2,1.9,5.4,2.6,8.2,1.5c2.6-0.9,4.7-3.3,5.2-6c0.6-2.8-0.4-5.8-2.4-7.7
			C753.8,119.6,750.8,118.8,748,119.6z M716.7,125.2c-6.8,3.8-13.2,8.5-18.7,14c-7.4,7.5-13.2,16.9-15.3,27.3
			c6.2,2.1,12.8,2.8,19.3,2.4c11.6-0.7,22.8-4.9,32.8-10.7c2.1-1.2,3.4-3.2,4.5-5.3c1.1-2.2,1.9-4.5,2.5-6.8
			c-1.7-1.2-3.7-2.1-5.3-3.6c-10.2,5.9-20.5,11.8-30.7,17.7c-2.1-3.4-4-7-6.1-10.5c10.2-5.9,20.5-11.8,30.7-17.7
			c-0.4-2.1-0.6-4.3-0.4-6.4C725.8,124.5,721,123.4,716.7,125.2z M770.6,125.6c0.2,2.1,0,4.3-0.4,6.4c10.2,5.9,20.5,11.8,30.7,17.7
			c-2.1,3.5-4,7-6.1,10.5c-10.2-6-20.5-11.8-30.7-17.7c-1.5,1.3-3.1,2.4-4.9,3.3c-0.8,0.2-0.2,1.1-0.1,1.5c1.3,3.9,2.8,8.1,6.2,10.6
			c8.3,4.9,17.3,8.6,26.8,10.2c8.5,1.5,17.5,1.2,25.8-1.6c-1.4-7.2-4.7-13.9-8.9-19.8c-6.4-8.9-15.2-16-24.8-21.4
			C779.8,123.4,774.9,124.5,770.6,125.6z M733.1,172.8c-0.2,0.6,0.2,1.3,0.3,2c2.5,11.5,7.9,22.8,16.9,30.7
			c9.6-8.3,14.9-20.4,17.4-32.6c-3.8-2.1-7.9-3.7-11.3-6.6c0,5.3,0,10.7,0,16c-4,0-8.1,0-12.1,0c0-5.3,0-10.7,0-16
			C740.9,169.1,736.9,170.8,733.1,172.8z M697.6,181.1c0.9,8.4,4.2,16.4,7.9,23.9c8.4-0.5,16.9-1.7,24.6-5.1
			c-4.1-7-6.7-14.7-8.6-22.6C713.8,179.9,705.7,181.2,697.6,181.1z M770.5,200c7.7,3.4,16.3,4.6,24.7,5.1c3.6-7.5,7-15.5,7.9-23.9
			c-8.1,0.1-16.2-1.3-24-3.8C777.2,185.3,774.5,193,770.5,200z"/>
	</g>
</g>
</svg>
